<?xml version="1.0" encoding="UTF-8" ?>
<!DOCTYPE svg PUBLIC "-//W3C//DTD SVG 1.1//EN" "http://www.w3.org/Graphics/SVG/1.1/DTD/svg11.dtd">
<svg width="489pt" height="499pt" viewBox="0 0 489 499" version="1.1" xmlns="http://www.w3.org/2000/svg">
<g id="#ddddddff">
</g>
<g id="#202022ff">
<path fill="#376EE2" opacity="1.00" d=" M 217.42 23.38 C 224.39 17.56 233.58 13.48 242.82 14.79 C 248.98 15.77 255.03 18.18 259.82 22.23 C 265.06 27.02 268.70 33.75 268.86 40.95 C 259.65 40.69 251.60 33.47 242.17 35.85 C 231.55 38.26 225.03 48.28 222.28 58.18 C 226.39 57.35 230.40 56.09 234.27 54.50 C 242.90 50.97 251.67 47.77 260.56 44.97 C 269.89 42.05 278.98 38.40 288.37 35.70 C 294.37 34.02 301.00 34.00 306.77 36.51 C 313.04 39.27 318.39 44.42 320.83 50.88 C 322.49 55.28 323.01 60.00 323.59 64.63 C 333.42 62.46 343.18 58.11 353.46 59.75 C 361.63 60.76 368.25 66.79 372.14 73.76 C 375.03 78.92 375.37 84.97 375.44 90.75 C 384.64 89.35 393.60 85.94 403.03 86.44 C 416.65 86.24 430.26 94.87 434.82 107.90 C 438.63 118.31 436.27 130.98 427.75 138.43 C 422.38 130.91 422.80 120.03 414.83 114.25 C 406.33 106.77 394.35 109.70 384.40 111.80 C 384.47 112.66 384.53 113.52 384.60 114.38 C 403.59 125.05 421.95 136.76 440.09 148.81 C 444.70 151.84 449.23 155.39 451.76 160.42 C 454.81 165.70 455.22 172.05 454.34 177.96 C 453.02 184.80 448.59 190.50 443.68 195.20 C 439.30 188.95 439.84 180.69 435.45 174.48 C 431.73 168.83 425.51 165.74 420.05 162.10 C 401.82 150.08 383.21 138.64 364.13 128.03 C 358.59 124.92 352.49 122.34 346.02 122.46 C 340.07 122.09 334.28 123.86 328.95 126.36 C 333.23 129.46 338.02 131.72 342.72 134.08 C 364.96 146.20 386.88 158.93 408.07 172.81 C 418.42 180.22 429.47 186.60 439.54 194.40 C 445.37 198.93 451.42 203.16 457.29 207.63 C 463.57 212.43 468.22 219.91 467.85 228.02 C 468.41 237.60 462.86 246.39 455.63 252.21 C 451.65 246.46 452.99 238.99 449.88 232.90 C 447.01 226.78 441.07 223.10 435.74 219.36 C 426.87 213.57 418.50 207.06 409.67 201.21 C 386.29 185.11 362.06 170.24 337.04 156.81 C 327.87 151.92 318.86 146.69 309.35 142.45 C 299.80 137.92 288.18 138.21 278.77 142.99 C 287.40 149.07 297.56 152.41 306.82 157.36 C 316.55 162.63 326.66 167.21 336.16 172.90 C 342.46 176.66 349.08 179.87 355.30 183.77 C 371.51 194.56 388.35 204.36 404.28 215.58 C 425.08 229.85 445.18 245.17 464.36 261.57 C 470.59 266.79 476.68 272.65 479.98 280.24 C 484.31 290.11 483.79 302.40 477.28 311.22 C 471.38 319.87 460.60 324.77 450.19 323.46 C 452.85 314.76 461.43 308.59 461.42 298.99 C 461.90 287.08 451.62 278.55 442.33 272.99 C 443.93 287.67 446.73 302.22 447.72 316.97 C 448.84 328.59 450.53 340.30 449.39 351.98 C 447.77 359.55 442.46 366.30 435.47 369.64 C 429.26 372.67 422.12 371.65 415.48 371.30 C 418.65 363.95 425.84 358.73 427.18 350.54 C 428.46 341.65 426.65 332.72 426.11 323.84 C 424.15 303.17 421.71 282.50 417.48 262.16 C 415.36 251.81 407.37 243.86 398.41 238.92 C 398.65 247.18 400.90 255.20 402.17 263.33 C 405.91 286.52 409.87 309.71 411.76 333.14 C 413.20 352.40 414.83 371.68 414.54 391.03 C 414.65 395.83 413.60 400.70 411.01 404.79 C 404.72 415.53 389.70 421.26 378.36 415.29 C 382.19 410.21 387.05 405.86 390.10 400.22 C 393.29 394.32 392.38 387.43 392.38 381.00 C 392.51 362.92 389.97 344.99 388.61 327.00 C 387.97 312.07 385.12 297.37 382.85 282.64 C 380.40 267.07 378.01 251.48 374.59 236.10 C 372.89 228.19 369.07 220.54 362.85 215.23 C 359.77 212.54 356.09 210.70 352.38 209.05 C 355.59 226.10 360.61 242.77 363.48 259.90 C 368.24 289.13 373.37 318.40 374.80 348.03 C 375.83 357.01 375.52 366.07 376.47 375.07 C 376.97 393.38 376.62 411.70 376.69 430.02 C 376.92 440.22 374.68 450.97 367.97 458.95 C 362.34 466.26 353.02 470.02 343.99 470.41 C 334.53 469.89 325.42 465.01 319.60 457.55 C 327.21 453.34 336.87 456.21 344.13 451.02 C 353.75 444.52 355.31 431.59 354.25 420.92 C 347.58 424.82 342.85 431.09 337.48 436.48 C 326.76 447.43 315.78 458.12 304.96 468.97 C 297.71 476.42 286.14 478.42 276.44 475.27 C 268.91 472.59 263.95 465.94 259.56 459.63 C 252.98 463.84 247.85 469.92 241.17 473.97 C 233.18 478.70 222.26 478.87 214.60 473.36 C 209.55 469.51 204.88 464.70 202.90 458.51 C 209.76 457.79 216.84 459.21 223.56 457.26 C 230.82 455.09 235.94 449.22 241.61 444.56 C 257.08 431.46 271.67 417.38 286.26 403.33 C 301.17 387.51 315.90 371.50 330.00 354.95 C 336.90 346.22 345.89 338.31 348.55 327.06 C 350.11 321.56 349.76 315.71 348.07 310.29 C 345.92 312.44 343.90 314.73 342.05 317.14 C 314.27 352.96 283.45 386.41 250.04 417.04 C 244.67 422.41 238.54 426.91 232.75 431.81 C 220.12 442.93 206.98 453.47 193.59 463.66 C 186.76 468.62 179.96 474.33 171.43 475.96 C 164.36 477.26 156.69 477.31 150.09 474.14 C 141.54 470.14 134.96 462.06 132.93 452.82 C 131.86 447.86 132.47 442.73 133.76 437.88 C 140.55 440.42 143.58 447.62 149.53 451.32 C 155.52 455.14 163.49 455.56 169.95 452.70 C 175.51 450.01 180.58 446.20 184.41 441.32 C 179.65 440.42 174.79 440.53 169.99 440.14 C 151.38 438.15 132.80 435.88 114.31 432.97 C 104.26 431.51 94.88 424.03 92.76 413.85 C 91.67 407.07 91.90 399.88 94.84 393.57 C 101.34 397.10 104.19 404.63 110.63 408.19 C 117.48 412.01 125.55 411.98 133.08 413.37 C 145.73 414.77 158.25 417.55 171.02 417.54 C 176.35 417.84 181.64 418.54 186.98 418.72 C 195.46 419.47 204.39 420.57 212.50 417.25 C 218.26 414.88 223.40 410.89 226.74 405.58 C 202.08 404.55 177.35 403.76 152.91 400.01 C 141.39 399.09 130.00 397.18 118.63 395.28 C 106.04 393.87 93.56 391.64 81.15 389.13 C 74.83 388.01 68.50 385.78 63.81 381.22 C 54.62 373.38 53.04 358.86 59.14 348.70 C 59.61 348.56 60.55 348.28 61.02 348.13 C 65.30 352.18 67.47 358.08 72.35 361.56 C 79.34 367.14 88.54 367.94 97.01 369.57 C 114.31 372.83 131.77 375.12 149.22 377.40 C 161.74 379.30 174.33 380.60 186.96 381.41 C 193.65 381.52 200.34 381.54 207.00 382.27 C 218.34 382.73 229.69 382.63 241.03 382.65 C 251.66 382.90 261.50 376.46 267.22 367.77 C 247.50 367.20 227.72 368.54 208.06 366.66 C 200.62 366.47 193.15 366.63 185.76 365.61 C 177.43 364.42 168.99 364.41 160.68 363.06 C 147.32 361.76 134.05 359.72 120.76 357.88 C 101.77 355.48 83.16 350.92 64.47 346.91 C 55.44 344.70 46.23 343.02 37.49 339.80 C 26.60 335.73 17.07 326.61 14.68 314.96 C 13.91 308.62 13.82 301.85 16.68 295.99 C 19.79 288.82 25.90 282.80 33.64 280.97 C 33.75 289.01 30.97 297.16 33.17 305.11 C 35.91 312.47 42.25 318.65 49.92 320.65 C 53.83 321.81 57.89 322.37 61.96 322.69 C 56.07 312.18 48.71 302.59 42.58 292.23 C 36.12 282.24 30.19 271.93 24.10 261.72 C 20.97 256.73 20.95 250.62 21.41 244.94 C 22.03 238.27 25.92 232.25 30.97 228.00 C 34.75 224.84 39.65 223.67 44.31 222.48 C 41.38 214.58 36.47 207.59 33.67 199.66 C 29.92 188.21 36.46 175.51 46.40 169.54 C 49.95 167.40 54.09 166.69 58.12 166.02 C 54.81 156.48 49.22 147.74 47.53 137.67 C 45.71 130.42 48.20 122.96 51.16 116.38 C 55.27 107.32 64.53 101.29 74.15 99.64 C 80.77 98.93 88.37 99.76 93.21 104.84 C 86.75 109.78 78.47 112.69 73.79 119.67 C 70.70 124.44 68.61 130.52 70.39 136.16 C 71.86 141.60 74.79 146.49 77.27 151.52 C 77.73 151.53 78.67 151.55 79.14 151.56 C 80.82 144.84 83.06 138.28 85.44 131.78 C 89.83 119.74 93.17 107.31 98.26 95.53 C 101.03 89.12 102.75 81.91 107.81 76.81 C 116.95 67.37 133.49 66.68 143.45 75.15 C 143.56 75.64 143.77 76.61 143.87 77.09 C 139.41 80.85 133.40 82.13 128.99 85.99 C 125.88 88.59 123.65 92.07 122.02 95.75 C 116.09 109.31 111.87 123.53 106.74 137.39 C 102.87 147.97 100.01 158.88 96.82 169.67 C 95.35 174.61 95.14 179.84 95.66 184.94 C 96.31 190.87 99.26 196.16 101.74 201.47 C 102.52 201.42 103.30 201.37 104.08 201.32 C 108.82 183.93 113.75 166.58 119.12 149.37 C 123.40 137.59 127.03 125.59 131.56 113.91 C 136.80 100.83 141.51 87.52 147.48 74.74 C 150.83 67.47 153.04 59.51 158.06 53.13 C 162.93 46.79 171.09 43.65 178.94 43.62 C 185.38 44.15 191.97 46.42 196.69 50.97 C 197.01 53.13 194.87 53.81 193.35 54.63 C 188.53 56.92 183.28 58.63 179.30 62.34 C 175.46 65.75 173.39 70.57 171.37 75.17 C 168.29 82.41 164.82 89.48 162.06 96.85 C 157.11 109.87 151.59 122.67 147.21 135.90 C 143.84 146.14 139.84 156.17 136.99 166.58 C 132.77 181.42 127.95 196.11 124.55 211.18 C 122.42 219.39 121.24 228.25 123.79 236.50 C 125.09 241.20 128.18 245.06 130.33 249.37 C 130.58 248.70 131.07 247.37 131.32 246.70 L 132.36 248.74 C 133.29 242.06 135.04 235.54 136.49 228.97 C 139.05 219.04 140.81 208.92 143.70 199.07 C 148.84 182.18 153.13 165.01 159.24 148.42 C 162.44 139.92 164.90 131.15 168.41 122.76 C 173.87 109.52 178.61 95.99 184.74 83.04 C 190.05 70.56 196.17 58.44 202.05 46.21 C 206.52 38.22 210.15 29.33 217.42 23.38 M 296.44 57.90 C 281.05 61.21 266.57 67.56 251.64 72.38 C 241.12 75.83 231.05 80.46 220.75 84.48 C 210.24 88.46 201.24 97.59 199.08 108.84 C 204.02 107.71 208.67 105.66 213.24 103.53 C 223.94 98.57 235.01 94.48 246.00 90.24 C 259.78 84.61 274.02 80.29 288.02 75.29 C 299.35 71.30 311.28 69.25 322.40 64.67 C 314.00 61.78 305.70 55.99 296.44 57.90 M 332.64 86.26 C 322.66 88.52 313.05 92.07 303.21 94.83 C 288.23 99.03 273.77 104.83 259.04 109.79 C 238.57 117.53 218.47 126.22 198.61 135.39 C 188.86 139.97 181.49 149.40 179.68 160.06 C 193.40 154.97 206.05 147.40 219.58 141.83 C 228.49 138.13 237.18 133.87 246.25 130.55 C 252.29 128.36 258.17 125.77 264.18 123.48 C 277.17 118.69 290.32 114.33 303.39 109.78 C 319.22 105.13 335.03 100.40 351.02 96.30 C 358.17 94.43 365.54 93.45 372.56 91.08 C 367.49 86.84 361.35 83.87 354.86 82.60 C 347.23 81.45 339.95 84.67 332.64 86.26 M 235.61 160.12 C 221.03 164.85 207.69 172.59 193.82 179.02 C 186.53 182.56 179.14 186.50 173.62 192.58 C 168.67 198.38 164.74 205.17 162.93 212.62 C 160.70 221.52 158.95 230.53 156.74 239.44 C 154.11 251.78 150.41 264.65 153.72 277.23 C 155.55 285.32 160.49 292.16 165.44 298.63 C 171.02 305.67 176.21 313.05 182.50 319.51 C 187.80 324.88 191.69 331.56 197.62 336.31 C 204.99 341.85 214.07 345.09 223.31 345.37 C 238.48 345.62 253.65 345.57 268.82 345.38 C 281.58 345.07 294.33 339.51 302.72 329.78 C 311.62 319.60 319.74 308.78 328.10 298.16 C 332.22 292.82 336.21 287.24 338.66 280.89 C 342.04 272.55 342.19 263.16 340.11 254.48 C 337.68 244.59 335.48 234.64 333.03 224.75 C 331.32 217.92 330.38 210.81 327.35 204.39 C 323.38 196.06 317.13 188.71 309.08 184.10 C 298.99 178.23 288.17 173.76 277.80 168.43 C 268.81 164.74 260.06 159.17 250.02 159.28 C 245.22 159.26 240.32 158.99 235.61 160.12 M 59.00 168.07 C 55.70 176.03 52.77 185.20 56.11 193.64 C 58.95 200.79 63.40 207.16 66.69 214.10 C 87.83 253.43 112.55 290.79 139.71 326.22 C 146.68 335.85 158.50 341.83 170.41 341.44 C 165.55 334.47 159.75 328.23 154.58 321.50 C 141.13 304.13 128.00 286.48 116.01 268.07 C 105.94 252.09 95.34 236.43 86.29 219.84 C 80.21 210.02 75.46 199.47 69.85 189.40 C 65.96 182.42 63.56 174.67 59.00 168.07 M 45.05 224.44 C 41.88 234.64 40.17 246.74 46.86 255.95 C 59.84 277.42 73.04 298.79 87.79 319.11 C 93.94 327.86 104.23 333.81 115.07 333.70 C 112.35 326.72 106.93 321.42 102.74 315.35 C 86.31 292.41 71.17 268.57 56.92 244.22 C 52.96 237.63 49.97 230.42 45.05 224.44 M 336.62 382.62 C 319.44 402.38 300.66 420.66 281.91 438.91 C 275.26 445.13 268.25 450.99 261.88 457.51 C 269.25 457.89 277.07 458.44 283.93 455.16 C 289.03 452.85 292.65 448.42 296.68 444.69 C 306.34 436.04 315.41 426.74 324.42 417.43 C 332.02 408.71 340.63 400.89 347.76 391.77 C 353.48 383.93 354.35 373.77 353.29 364.41 C 346.93 369.71 342.34 376.69 336.62 382.62 Z" />
</g>
</svg>
